<svg width="24" height="24" viewBox="0 0 24 24" fill="none" xmlns="http://www.w3.org/2000/svg">
<path d="M7.93955 2.45407C7.65834 2.73536 7.50037 3.11683 7.50037 3.51457C7.50037 3.91232 7.65834 4.29378 7.93955 4.57507L15.3646 12.0001L7.93955 19.4251C7.66631 19.708 7.51512 20.0869 7.51854 20.4802C7.52196 20.8735 7.67971 21.2497 7.95782 21.5278C8.23594 21.8059 8.61215 21.9637 9.00545 21.9671C9.39874 21.9705 9.77765 21.8193 10.0605 21.5461L18.546 13.0606C18.8273 12.7793 18.9852 12.3978 18.9852 12.0001C18.9852 11.6023 18.8273 11.2209 18.546 10.9396L10.0605 2.45407C9.77926 2.17287 9.3978 2.01489 9.00005 2.01489C8.6023 2.01489 8.22084 2.17287 7.93955 2.45407Z" fill="#6B6B6B"/>
</svg>
