<svg width="30" height="30" viewBox="0 0 30 30" fill="none" xmlns="http://www.w3.org/2000/svg">
<path d="M8.125 27C6.22917 27 4.60958 26.3437 3.26625 25.0312C1.92292 23.7188 1.25083 22.1146 1.25 20.2188C1.25 18.5938 1.73958 17.1458 2.71875 15.875C3.69792 14.6042 4.97917 13.7917 6.5625 13.4375C7.08333 11.5208 8.125 9.96875 9.6875 8.78125C11.25 7.59375 13.0208 7 15 7C17.4375 7 19.5054 7.84917 21.2037 9.5475C22.9021 11.2458 23.7508 13.3133 23.75 15.75C25.1875 15.9167 26.3804 16.5367 27.3288 17.61C28.2771 18.6833 28.7508 19.9383 28.75 21.375C28.75 22.9375 28.2033 24.2658 27.11 25.36C26.0167 26.4542 24.6883 27.0008 23.125 27H8.125Z" fill="#BDAAF2"/>
</svg>
