<svg width="28" height="28" viewBox="0 0 28 28" fill="none" xmlns="http://www.w3.org/2000/svg">
<path d="M18.7373 25.137C19.0653 24.8089 19.2496 24.3638 19.2496 23.8998C19.2496 23.4358 19.0653 22.9907 18.7373 22.6625L10.0748 14L18.7373 5.33753C19.056 5.00748 19.2324 4.56542 19.2285 4.10658C19.2245 3.64773 19.0404 3.20881 18.716 2.88435C18.3915 2.55988 17.9526 2.37584 17.4937 2.37185C17.0349 2.36786 16.5928 2.54425 16.2628 2.86303L6.36302 12.7628C6.03495 13.091 5.85065 13.536 5.85065 14C5.85065 14.4641 6.03495 14.9091 6.36302 15.2373L16.2628 25.137C16.5909 25.4651 17.036 25.6494 17.5 25.6494C17.9641 25.6494 18.4091 25.4651 18.7373 25.137Z" fill="#6B6B6B"/>
</svg>
