<svg width="353" height="54" viewBox="0 0 353 54" fill="none" xmlns="http://www.w3.org/2000/svg">
<rect x="0.25" y="0.25" width="352.5" height="53.5" rx="9.75" stroke="#6B6B6B" stroke-width="0.5"/>
<path d="M53.5312 14.4688H29.4688C25.8446 14.4688 24 17.1621 24 20.4844V26.5H59V20.4844C59 17.1621 57.1554 14.4688 53.5312 14.4688Z" fill="#27AAE1"/>
<path d="M24 32.5156C24 35.8379 25.8446 38.5312 29.4688 38.5312H53.5312C57.1554 38.5312 59 35.8379 59 32.5156V31.9688H24V32.5156Z" fill="#128807"/>
<path fill-rule="evenodd" clip-rule="evenodd" d="M51.2178 18.5594L50.6414 15.7424C50.6365 15.7178 50.6338 15.6937 50.63 15.6702C50.6376 15.6626 50.6447 15.6626 50.6496 15.6713L51.5635 18.433C51.5693 18.4312 51.5754 18.4302 51.5815 18.4303C51.6389 17.476 51.6953 16.5217 51.7532 15.5658C51.7582 15.5516 51.7642 15.5516 51.7702 15.5658C51.7992 16.0115 51.8265 16.4555 51.8539 16.9007C51.8845 17.4016 51.9124 17.9015 51.9419 18.4019C51.9518 18.4046 51.96 18.4073 51.9687 18.4084C52.2624 17.5252 52.5571 16.642 52.8497 15.7577C52.8902 15.7577 52.8765 15.7785 52.8689 15.7993C52.7747 16.2708 52.679 16.7421 52.5818 17.213C52.4953 17.6346 52.4046 18.0573 52.3171 18.4779C52.2963 18.5085 52.328 18.5523 52.2925 18.578C52.2476 18.6059 52.2039 18.5911 52.1612 18.5791C51.8985 18.5 51.6184 18.5 51.3557 18.5791C51.3207 18.5889 51.2824 18.6009 51.2436 18.5851C51.2326 18.5797 51.2237 18.5711 51.2178 18.5605M50.59 20.754C49.7872 21.1576 48.9866 21.5623 48.1865 21.9642C48.158 21.9782 48.129 21.9911 48.0996 22.003C48.0761 22.0145 48.075 22.002 48.0788 21.9834L50.3959 20.4565C50.397 20.4177 50.3746 20.4286 50.3527 20.4373C49.7178 20.5675 49.0828 20.6993 48.4457 20.8273C48.1471 20.8896 47.8475 20.9492 47.5483 21.0099C47.5439 21.005 47.5412 21.0001 47.545 20.9979L47.5483 20.9919C48.4512 20.6933 49.3552 20.3947 50.2559 20.0961C50.2794 20.0884 50.304 20.0841 50.327 20.0791C50.3614 20.0622 50.3784 20.0879 50.4014 20.1059C50.4386 20.1546 50.444 20.2148 50.461 20.2711C50.4954 20.3865 50.5441 20.4926 50.6081 20.5932C50.63 20.6277 50.6518 20.6643 50.6496 20.708C50.6453 20.743 50.6179 20.7502 50.59 20.754ZM53.1428 19.325C53.6153 19.2249 54.0889 19.1254 54.5625 19.0275C54.9541 18.946 55.3462 18.8662 55.7367 18.7852C55.7711 18.7781 55.805 18.7743 55.84 18.7699C55.8646 18.7595 55.8679 18.7721 55.8646 18.7918C55.0153 19.0734 54.1682 19.3556 53.3195 19.6384L53.2489 19.6619C53.2358 19.6848 53.2566 19.6898 53.2697 19.698C54.1699 19.7505 55.0684 19.8013 55.9696 19.8527C56.0134 19.8845 56.0796 19.8221 56.1151 19.8877L53.4469 20.0409C53.4119 20.042 53.3769 20.042 53.3419 20.0409C53.2839 20.0578 53.2265 20.0469 53.168 20.0496C53.1243 20.025 53.1193 19.9818 53.1204 19.9419C53.1258 19.7743 53.104 19.607 53.0559 19.4464C53.0505 19.4315 53.0482 19.4158 53.049 19.4C53.0498 19.3842 53.0539 19.3687 53.0608 19.3545C53.0772 19.3173 53.1161 19.337 53.1428 19.325ZM48.1225 17.7555L49.5225 18.4538L50.5282 18.958C50.5528 18.9701 50.5764 18.9887 50.607 18.9788C50.6365 18.9646 50.6633 18.9531 50.683 18.992C50.6245 19.1325 50.5703 19.2763 50.4473 19.3759C50.4128 19.3797 50.3855 19.3698 50.3686 19.3359C50.3625 19.3179 50.3871 19.3015 50.3746 19.2807C49.6532 18.8044 48.9314 18.3291 48.2111 17.8528C48.1728 17.8282 48.1357 17.8014 48.0985 17.7757C48.0952 17.7566 48.0979 17.7429 48.1225 17.7555ZM51.6007 21.4611C51.593 21.4135 51.5859 21.367 51.5739 21.297C51.2703 22.2152 50.9712 23.1105 50.6737 24.0062C50.6551 24.0101 50.6425 24.0073 50.654 23.9827C50.7481 23.513 50.8432 23.0421 50.9395 22.5718C51.027 22.1491 51.1145 21.7274 51.1998 21.3047C51.2075 21.2702 51.2375 21.2325 51.2047 21.1975C51.2018 21.1919 51.2011 21.1855 51.2027 21.1794C51.2043 21.1733 51.2082 21.1681 51.2135 21.1647C51.3371 21.1248 51.4382 21.2117 51.5542 21.2237C51.5935 21.2265 51.6231 21.2533 51.6351 21.2948C51.6499 21.3561 51.6668 21.4173 51.6007 21.4611ZM52.6561 21.0531C52.9225 21.5847 53.185 22.1141 53.4491 22.6423L53.8833 23.5173C53.8948 23.5425 53.8806 23.5436 53.8625 23.5425L52.3461 21.2418C52.3439 21.2369 52.3428 21.2298 52.34 21.2227C52.3182 21.2139 52.3056 21.1991 52.3056 21.174C52.3936 21.0597 52.5134 20.9946 52.6512 20.9602C52.6895 20.9886 52.678 21.0203 52.6561 21.0531Z" fill="#E4BD01"/>
<path fill-rule="evenodd" clip-rule="evenodd" d="M53.1649 20.0414C53.2228 20.0414 53.2819 20.0425 53.3399 20.0436C53.295 20.0513 53.2513 20.0567 53.1878 20.0693L55.9047 20.9722C55.9096 20.9919 55.9064 21.0028 55.8828 20.993L54.0721 20.6222C53.7686 20.5604 53.4678 20.4991 53.1649 20.4384C53.1271 20.4237 53.0987 20.4718 53.061 20.4527C53.052 20.4468 53.0449 20.4384 53.0407 20.4286C53.055 20.2902 53.0626 20.1497 53.1649 20.0414ZM52.6563 18.7185C52.9057 18.5211 53.1315 18.3023 53.3705 18.094C53.8228 17.6948 54.2745 17.2923 54.7273 16.893C54.7481 16.8865 54.7541 16.8952 54.7508 16.9149C54.1462 17.5978 53.541 18.2801 52.9352 18.9619C52.9543 18.9936 52.9494 19.0226 52.9237 19.0483C52.9106 19.0559 52.8942 19.0603 52.8838 19.0521C52.7744 18.9591 52.6552 18.8727 52.5857 18.7404C52.6 18.701 52.6235 18.6928 52.6563 18.7185ZM50.6711 18.9827C50.6503 18.9838 50.6285 19.0007 50.6088 18.9799L49.0595 17.2327C48.9468 17.1063 48.8385 16.9795 48.7253 16.8542C48.7352 16.8422 48.7461 16.8422 48.7576 16.8488C49.3564 17.3814 49.9558 17.9119 50.553 18.4429C50.6564 18.5348 50.7603 18.6206 50.8625 18.7098C50.8992 18.6994 50.9128 18.7207 50.921 18.7497C50.8675 18.8602 50.7991 18.9531 50.6711 18.9827ZM52.3189 21.1778L52.3407 21.2221C52.2981 21.2429 52.3238 21.2773 52.3287 21.3025C52.5048 22.1611 52.6825 23.018 52.8608 23.8766C52.8657 23.9051 52.8696 23.9335 52.8717 23.9609C52.8832 23.9827 52.8696 23.9877 52.8504 23.9855L52.0044 21.4392L51.9787 21.3692C51.9678 21.3342 51.9251 21.3244 51.9131 21.2888C51.9103 21.2779 51.9131 21.267 51.918 21.2571C52.0241 21.1888 52.1482 21.1827 52.2653 21.1532C52.2844 21.1477 52.3068 21.1587 52.3189 21.1778Z" fill="#E4BD01"/>
<path fill-rule="evenodd" clip-rule="evenodd" d="M50.9063 18.7535C50.892 18.7393 50.8784 18.7239 50.8636 18.7097C50.874 18.6671 50.8456 18.6364 50.8291 18.6025C50.437 17.82 50.0438 17.0368 49.6512 16.2554C49.6391 16.2297 49.6293 16.2039 49.6167 16.1777C49.6047 16.1558 49.6178 16.1558 49.6348 16.1569C50.1346 16.9149 50.6312 17.6723 51.1305 18.4281C51.1589 18.4718 51.189 18.5145 51.2185 18.5593L51.2431 18.5615C51.2442 18.5654 51.2481 18.5692 51.2464 18.5714C51.2059 18.6501 50.9959 18.7595 50.9063 18.7535ZM51.2027 21.1734L51.2016 21.1975C51.172 21.245 51.1452 21.2943 51.1163 21.3402L49.6364 23.5835C49.6184 23.59 49.6069 23.5873 49.6184 23.5643L50.8565 21.0936C50.8576 21.087 50.8614 21.0799 50.8625 21.0739C50.8784 21.0471 50.851 21.017 50.8729 20.9924C50.8787 20.9839 50.8872 20.9775 50.897 20.9743C51.0216 21.0061 51.137 21.0525 51.2027 21.1734ZM52.6563 18.7185C52.6358 18.7233 52.6152 18.7273 52.5945 18.7305C52.4834 18.7414 52.3298 18.6518 52.303 18.5615C52.303 18.5314 52.2986 18.5014 52.321 18.4768C52.3221 18.4899 52.3221 18.5052 52.327 18.5402L53.8867 16.1766C53.9048 16.1728 53.9152 16.1755 53.9059 16.1957C53.5088 16.9925 53.1102 17.7882 52.7115 18.5834C52.6891 18.6277 52.6563 18.6671 52.6563 18.7185ZM52.9111 19.0493C52.9171 19.0204 52.9242 18.9914 52.9319 18.9618C52.9822 18.9728 53.021 18.9471 53.0609 18.9263C53.8288 18.5407 54.5966 18.1557 55.3666 17.7718C55.3906 17.7571 55.418 17.7494 55.4437 17.7385C55.4645 17.7254 55.4628 17.7385 55.4628 17.7527C54.808 18.1863 54.1527 18.619 53.4968 19.051C53.3765 19.1303 53.2567 19.2101 53.1359 19.2883C53.1085 19.3053 53.0965 19.3195 53.143 19.325C53.1238 19.3408 53.102 19.3419 53.0784 19.343C52.9893 19.3113 52.9013 19.1598 52.9111 19.0493ZM52.6563 21.0531C52.6409 21.0263 52.6524 20.9979 52.6563 20.9689C52.6628 20.8721 52.7913 20.7403 52.9029 20.7157C52.9335 20.7266 52.9532 20.7436 52.9313 20.7802C53.2206 21.1083 53.5116 21.437 53.8009 21.7668C54.1244 22.1327 54.4475 22.4991 54.7699 22.866C54.7798 22.8769 54.7776 22.8868 54.7661 22.8955C54.2641 22.4525 53.7637 22.0096 53.2616 21.5655C53.0899 21.4113 52.9171 21.2571 52.7438 21.1039C52.7202 21.0815 52.7006 21.046 52.6563 21.0547" fill="#E4BD01"/>
<path fill-rule="evenodd" clip-rule="evenodd" d="M50.8842 20.9831C50.8831 20.9908 50.882 20.9974 50.882 21.005C50.8793 21.0307 50.8596 21.04 50.8394 21.0515C50.1858 21.6306 49.534 22.2114 48.8804 22.7917C48.8433 22.825 48.8061 22.8551 48.7683 22.8868C48.7481 22.8934 48.7421 22.8857 48.7481 22.866C49.3473 22.1945 49.9447 21.5213 50.5402 20.8464C50.5604 20.824 50.6217 20.8098 50.5878 20.7545L50.6277 20.7168C50.7267 20.7332 50.8672 20.8803 50.8842 20.9831ZM50.3756 20.1229L50.3291 20.0792C50.2668 20.0365 50.1951 20.0496 50.1279 20.0447C49.248 19.99 48.368 19.9392 47.4897 19.8877C47.5067 19.8254 47.5636 19.879 47.5942 19.8527C48.4807 19.8024 49.3655 19.7499 50.252 19.698C50.3401 19.6504 50.3816 19.6931 50.4029 19.7773C50.409 19.8615 50.3986 19.9484 50.4139 20.0343C50.418 20.0512 50.4166 20.069 50.4096 20.085C50.4027 20.101 50.3908 20.1143 50.3756 20.1229ZM52.9317 20.7797C52.929 20.754 52.9147 20.7398 52.889 20.7343C52.8699 20.6402 52.9683 20.4734 53.0602 20.4412C53.069 20.4395 53.0761 20.4395 53.0848 20.4384C53.1154 20.4215 53.1286 20.4395 53.1428 20.4603C53.9062 20.9662 54.673 21.4709 55.4369 21.9741L55.5272 22.0348C55.4785 22.0517 55.449 22.0195 55.4189 22.002C54.6248 21.6066 53.8329 21.2095 53.0389 20.8114C53.0061 20.7945 52.9755 20.7666 52.9317 20.7797Z" fill="#E4BD01"/>
<path fill-rule="evenodd" clip-rule="evenodd" d="M50.3756 19.325L50.4424 19.3687C50.4949 19.4869 50.4336 19.5848 50.3849 19.6859C50.3417 19.7012 50.3051 19.6881 50.2695 19.6613C49.4246 19.3786 48.5786 19.0986 47.7331 18.8169C47.7064 18.8082 47.68 18.7987 47.6538 18.7885C47.6522 18.7694 47.6577 18.759 47.6795 18.7694C47.9847 18.8306 48.2909 18.8897 48.5966 18.9515C49.1741 19.068 49.75 19.1855 50.3281 19.3042C50.3428 19.3124 50.3658 19.3031 50.3756 19.325ZM51.9124 21.2817L51.9304 21.2839C51.9599 21.2998 51.9512 21.3244 51.9424 21.3501L51.7877 24.0199C51.7849 24.0724 51.7773 24.1238 51.7718 24.1769C51.7641 24.1911 51.7587 24.19 51.7538 24.1741C51.7013 23.2959 51.6493 22.4143 51.5979 21.5349C51.5957 21.5103 51.5979 21.4841 51.5979 21.4611C51.6001 21.4004 51.6017 21.3397 51.6045 21.2801C51.6508 21.2515 51.7042 21.2365 51.7586 21.2368C51.8131 21.2371 51.8663 21.2527 51.9124 21.2817Z" fill="#E4BD01"/>
<path fill-rule="evenodd" clip-rule="evenodd" d="M56.1152 19.8877C56.0665 19.8757 56.0189 19.8631 55.9697 19.8527C56.0589 19.8369 56.1453 19.8615 56.2333 19.8877H56.1152Z" fill="#6BAE75"/>
<path fill-rule="evenodd" clip-rule="evenodd" d="M47.5922 19.8527C47.5561 19.8648 47.5217 19.8757 47.4878 19.8877H47.3822C47.3669 19.8828 47.3653 19.8763 47.3789 19.8697C47.4484 19.8538 47.5206 19.8478 47.5922 19.8527Z" fill="#B1B632"/>
<path fill-rule="evenodd" clip-rule="evenodd" d="M50.2717 19.6613C50.3067 19.6537 50.3351 19.7002 50.3745 19.6755C50.4128 19.7171 50.4205 19.7565 50.3597 19.786C50.3794 19.6876 50.3072 19.7012 50.2515 19.6974C50.2586 19.6859 50.2651 19.6723 50.2717 19.6613Z" fill="#3CA8A4"/>
<path fill-rule="evenodd" clip-rule="evenodd" d="M54.7508 16.9149L54.7273 16.8931C54.7506 16.8542 54.7865 16.8244 54.829 16.8088C54.8175 16.8529 54.7895 16.8909 54.7508 16.9149Z" fill="#A8B63B"/>
<path fill-rule="evenodd" clip-rule="evenodd" d="M53.863 23.5419C53.8707 23.5343 53.8762 23.5261 53.8838 23.5168C53.9177 23.5611 53.9451 23.6065 53.9336 23.6661C53.9102 23.6246 53.8867 23.5833 53.863 23.5419Z" fill="#B9B82B"/>
<path fill-rule="evenodd" clip-rule="evenodd" d="M55.8664 18.7913C55.8586 18.7836 55.8504 18.7763 55.8418 18.7694C55.8607 18.7573 55.8824 18.7503 55.9048 18.749C55.9272 18.7476 55.9495 18.752 55.9698 18.7617C55.9359 18.7716 55.9003 18.7803 55.8664 18.7913Z" fill="#BAB829"/>
<path fill-rule="evenodd" clip-rule="evenodd" d="M48.1226 17.7554C48.1146 17.7626 48.1063 17.7695 48.098 17.7762C48.0525 17.7513 48.0075 17.7256 47.9629 17.6991C48.0373 17.6882 48.0783 17.7248 48.1226 17.7554Z" fill="#BCB828"/>
<path fill-rule="evenodd" clip-rule="evenodd" d="M48.0789 21.9833C48.086 21.991 48.0931 21.997 48.0996 22.003C48.0803 22.0207 48.0576 22.0343 48.0329 22.0429C48.0082 22.0516 47.9819 22.0551 47.9558 22.0533C47.9979 22.0298 48.0389 22.0079 48.0789 21.9833Z" fill="#ADB636"/>
<path fill-rule="evenodd" clip-rule="evenodd" d="M52.8499 23.9855C52.8567 23.9771 52.8638 23.9688 52.8712 23.9609C52.8969 23.9975 52.898 24.038 52.8756 24.0845L52.8499 23.9855Z" fill="#B6B82D"/>
<path fill-rule="evenodd" clip-rule="evenodd" d="M48.7571 16.8487L48.7248 16.8542C48.6923 16.8316 48.6652 16.8021 48.6455 16.7678C48.6532 16.7579 48.6597 16.7568 48.6701 16.7667C48.698 16.7951 48.7259 16.8219 48.7571 16.8487Z" fill="#ABB639"/>
<path fill-rule="evenodd" clip-rule="evenodd" d="M47.5484 20.9919C47.5473 20.9979 47.5456 21.0039 47.5456 21.0099C47.5188 21.0384 47.4888 21.0384 47.4456 21.0187C47.4849 21.0088 47.5172 20.999 47.5484 20.9919Z" fill="#6DAE74"/>
<path fill-rule="evenodd" clip-rule="evenodd" d="M53.9024 16.1958C53.8953 16.1898 53.8893 16.1827 53.8833 16.1766C53.8904 16.1548 53.8964 16.1302 53.9276 16.1236C53.9413 16.157 53.9216 16.1766 53.9024 16.1958Z" fill="#AAB639"/>
<path fill-rule="evenodd" clip-rule="evenodd" d="M55.8828 20.9919C55.8905 20.9842 55.8976 20.9787 55.9047 20.9711C55.9331 20.9787 55.961 20.9853 55.9878 20.9929C55.9927 21.0126 55.99 21.0214 55.9681 21.0126C55.9375 21.011 55.9074 21.0137 55.8828 20.9919Z" fill="#A9B63A"/>
<path fill-rule="evenodd" clip-rule="evenodd" d="M54.9366 23.0476C54.8917 23.0268 54.866 23.0142 54.8611 22.9792C54.9026 22.9754 54.9125 23.0055 54.9366 23.0476Z" fill="#55AB8A"/>
<path fill-rule="evenodd" clip-rule="evenodd" d="M50.6507 23.9827C50.6567 23.9915 50.6638 23.9986 50.6704 24.0062L50.648 24.0899C50.6409 24.0987 50.6348 24.1003 50.6277 24.0916C50.6277 24.0538 50.6255 24.0161 50.6507 23.9827Z" fill="#ACB637"/>
<path fill-rule="evenodd" clip-rule="evenodd" d="M52.87 15.7987C52.864 15.7856 52.8585 15.7719 52.8508 15.7571C52.8585 15.7353 52.864 15.7123 52.8689 15.6915C52.8798 15.6828 52.888 15.6839 52.8968 15.6915C52.8913 15.7293 52.8968 15.767 52.87 15.7987Z" fill="#A8B63B"/>
<path fill-rule="evenodd" clip-rule="evenodd" d="M49.6335 16.1586C49.6275 16.1662 49.6221 16.1734 49.6155 16.1794C49.6035 16.1688 49.5939 16.1559 49.5872 16.1414C49.5805 16.1269 49.5769 16.1111 49.5767 16.0952C49.6133 16.1061 49.6221 16.134 49.6335 16.1586Z" fill="#A0B543"/>
<path fill-rule="evenodd" clip-rule="evenodd" d="M53.2686 19.6979C53.244 19.7007 53.2117 19.7149 53.2002 19.6865C53.1953 19.6706 53.227 19.6591 53.2478 19.6618L53.2686 19.6979Z" fill="#44A99B"/>
<path fill-rule="evenodd" clip-rule="evenodd" d="M47.3788 19.8697C47.381 19.8754 47.3821 19.8816 47.3821 19.8877H47.2793C47.3165 19.8609 47.3466 19.8647 47.3788 19.8697Z" fill="#6FAF71"/>
<path fill-rule="evenodd" clip-rule="evenodd" d="M47.5921 18.7705C47.5631 18.7628 47.5363 18.7563 47.5101 18.7486C47.5024 18.7459 47.4986 18.741 47.4997 18.7366C47.5014 18.7342 47.5026 18.7317 47.5035 18.7289C47.5369 18.7289 47.5681 18.7229 47.5921 18.7475C47.608 18.7546 47.608 18.7634 47.5921 18.7705Z" fill="#9DB445"/>
<path fill-rule="evenodd" clip-rule="evenodd" d="M56.0029 18.7436C56.0161 18.7103 56.0418 18.7081 56.0751 18.7114C56.0571 18.7415 56.0352 18.7486 56.0029 18.7436Z" fill="#5BAC85"/>
<path fill-rule="evenodd" clip-rule="evenodd" d="M51.7707 15.5625H51.7538C51.7456 15.5252 51.748 15.4863 51.7609 15.4504C51.7763 15.4857 51.7797 15.525 51.7707 15.5625Z" fill="#A1B541"/>
<path fill-rule="evenodd" clip-rule="evenodd" d="M55.4615 17.75L55.4424 17.7358C55.4526 17.7246 55.465 17.7156 55.4789 17.7093C55.4927 17.703 55.5076 17.6996 55.5228 17.6992C55.5129 17.732 55.4861 17.7391 55.4615 17.75Z" fill="#DCBC09"/>
<path fill-rule="evenodd" clip-rule="evenodd" d="M48.7515 22.8655C48.7592 22.8714 48.766 22.8784 48.7717 22.8863C48.758 22.9098 48.7405 22.9317 48.7012 22.9338C48.7039 22.8977 48.7269 22.8819 48.7515 22.8655Z" fill="#A3B540"/>
<path fill-rule="evenodd" clip-rule="evenodd" d="M54.7671 22.8928C54.7682 22.8824 54.7709 22.872 54.7709 22.8633C54.7966 22.8824 54.8294 22.8983 54.8278 22.9431C54.7955 22.9366 54.7802 22.9169 54.7671 22.8928Z" fill="#C2B922"/>
<path fill-rule="evenodd" clip-rule="evenodd" d="M49.6182 23.5638C49.6242 23.5715 49.6302 23.577 49.6362 23.583C49.6286 23.6065 49.6231 23.6295 49.5936 23.636C49.5799 23.6027 49.5985 23.583 49.6182 23.5638Z" fill="#A2B541"/>
<path fill-rule="evenodd" clip-rule="evenodd" d="M50.6498 15.6713L50.6301 15.6702C50.6055 15.6511 50.6082 15.6254 50.6132 15.5915C50.6249 15.6012 50.6343 15.6134 50.6406 15.6272C50.647 15.641 50.6501 15.6561 50.6498 15.6713Z" fill="#79B068"/>
<path fill-rule="evenodd" clip-rule="evenodd" d="M48.6695 16.7662L48.6449 16.7673C48.6192 16.7602 48.6099 16.7405 48.5979 16.7137C48.6132 16.7159 48.6278 16.7219 48.6403 16.731C48.6528 16.7402 48.6628 16.7522 48.6695 16.7662Z" fill="#68AE79"/>
<path fill-rule="evenodd" clip-rule="evenodd" d="M55.9702 21.0127L55.9899 20.993C56.0118 20.9995 56.0347 21.0061 56.0774 21.0198C56.0265 21.0384 55.9987 21.0318 55.9702 21.0127Z" fill="#66AD7A"/>
<path fill-rule="evenodd" clip-rule="evenodd" d="M47.5073 18.7289C47.5073 18.7365 47.5084 18.742 47.51 18.7486C47.4876 18.7398 47.4646 18.7327 47.4373 18.7229C47.4684 18.701 47.4903 18.707 47.5073 18.7289Z" fill="#53AB8C"/>
<path fill-rule="evenodd" clip-rule="evenodd" d="M50.3757 19.325C50.3598 19.3173 50.344 19.3119 50.3281 19.3042L50.3741 19.2823C50.3921 19.2884 50.414 19.2922 50.4123 19.3173C50.4118 19.3201 50.3888 19.3223 50.3757 19.325Z" fill="#27A5B7"/>
<path fill-rule="evenodd" clip-rule="evenodd" d="M52.8968 15.691H52.8689C52.8766 15.6642 52.8853 15.6369 52.8924 15.6095C52.8968 15.5981 52.9039 15.5981 52.911 15.6052C52.9121 15.6363 52.917 15.6664 52.8968 15.691Z" fill="#96B34C"/>
<path fill-rule="evenodd" clip-rule="evenodd" d="M47.592 18.7705V18.7475C47.6227 18.7508 47.6538 18.7475 47.6812 18.7694C47.6724 18.7754 47.6638 18.7818 47.6555 18.7885L47.592 18.7705Z" fill="#D2BB13"/>
<path fill-rule="evenodd" clip-rule="evenodd" d="M52.9109 15.6063C52.9049 15.6074 52.8989 15.6085 52.8923 15.6106L52.9169 15.539C52.9405 15.5713 52.9328 15.5904 52.9109 15.6063Z" fill="#4CAA93"/>
<path fill-rule="evenodd" clip-rule="evenodd" d="M51.9451 21.35L51.9331 21.2839C51.9665 21.3008 51.9796 21.3331 51.9807 21.3692L51.9451 21.35Z" fill="#3CA8A4"/>
<path fill-rule="evenodd" clip-rule="evenodd" d="M53.1429 20.4603C53.1221 20.4543 53.1041 20.4461 53.085 20.4384C53.1118 20.4023 53.1396 20.4215 53.1664 20.4373C53.1593 20.4457 53.1514 20.4534 53.1429 20.4603Z" fill="#44A99B"/>
<path fill-rule="evenodd" clip-rule="evenodd" d="M50.3538 20.4373C50.3784 20.4215 50.4084 20.405 50.4303 20.4275C50.4402 20.4373 50.4134 20.4515 50.397 20.4565C50.3827 20.4504 50.3685 20.445 50.3538 20.4373Z" fill="#5AAC87"/>
<path fill-rule="evenodd" clip-rule="evenodd" d="M50.8406 21.0531C50.8548 21.0373 50.8685 21.0209 50.8832 21.0067C50.8985 21.0362 50.8832 21.057 50.8608 21.075C50.8548 21.0668 50.8477 21.0608 50.8406 21.0531Z" fill="#5BAC85"/>
<path fill-rule="evenodd" clip-rule="evenodd" d="M50.3592 19.7865C50.3833 19.7521 50.3833 19.7149 50.374 19.6761C50.3762 19.57 50.4232 19.4721 50.4446 19.3687C50.5074 19.2336 50.5818 19.1035 50.671 18.9826L50.905 18.7535C51.0182 18.689 51.1314 18.6255 51.2424 18.5615C51.5946 18.4341 51.9468 18.4472 52.3001 18.5615C52.3975 18.6179 52.4948 18.6736 52.5916 18.7305C52.7075 18.829 52.8158 18.9334 52.9115 19.0493C52.9667 19.1483 53.0225 19.244 53.0789 19.343C53.1483 19.5694 53.185 19.8013 53.1669 20.0397C53.1414 20.1758 53.1059 20.3098 53.0608 20.4406C53.0023 20.5385 52.946 20.6364 52.8896 20.7337L52.6572 20.9678C52.5451 21.0378 52.433 21.1083 52.3192 21.1772C52.1858 21.2128 52.048 21.2472 51.9129 21.2811C51.8101 21.2811 51.7073 21.2795 51.605 21.2795C51.4692 21.2523 51.3351 21.2167 51.2036 21.1729C51.098 21.1098 50.9927 21.0464 50.8875 20.9826C50.8022 20.8929 50.7164 20.8048 50.631 20.7157C50.5071 20.5368 50.4199 20.3351 50.3746 20.1223C50.3636 20.0118 50.3489 19.8992 50.3592 19.7865Z" fill="#00A0DD"/>
<path fill-rule="evenodd" clip-rule="evenodd" d="M51.7669 18.6036C51.934 18.6036 52.0994 18.6365 52.2536 18.7005C52.4079 18.7645 52.548 18.8583 52.666 18.9766C52.7839 19.0949 52.8773 19.2353 52.9409 19.3898C53.0044 19.5442 53.0368 19.7097 53.0362 19.8768C53.0349 20.2145 52.9 20.5381 52.661 20.7767C52.4219 21.0154 52.0982 21.1497 51.7604 21.1504C51.4229 21.1479 51.1001 21.0123 50.8618 20.7733C50.6236 20.5343 50.4892 20.211 50.4878 19.8735C50.4894 19.5356 50.625 19.2121 50.8648 18.974C51.1046 18.736 51.429 18.6028 51.7669 18.6036Z" fill="#E4BD01"/>
<path d="M24 25.4062H59V31.9688H24V25.4062Z" fill="#F9CB38"/>
<line x1="79.5" y1="11" x2="79.5" y2="41" stroke="#6B6B6B"/>
</svg>
