<svg width="39" height="44" viewBox="0 0 39 44" fill="none" xmlns="http://www.w3.org/2000/svg">
<path d="M3.89301 43.9996C3.18059 43.9996 2.47206 43.7796 1.84529 43.344C1.28148 42.9486 0.816167 42.3973 0.493293 41.7421C0.170418 41.0869 0.000641763 40.3495 0 39.5996V4.39925C0 2.87244 0.700741 1.45562 1.84529 0.654818C2.41034 0.262162 3.05446 0.038381 3.71709 0.00451364C4.37972 -0.0293537 5.03908 0.127805 5.63318 0.461216L36.7772 18.0614C37.4239 18.4275 37.9676 18.9897 38.3476 19.6852C38.7276 20.3807 38.9289 21.182 38.9289 21.9994C38.9289 22.8168 38.7276 23.6181 38.3476 24.3136C37.9676 25.0091 37.4239 25.5714 36.7772 25.9374L5.63318 43.5376C5.08816 43.8456 4.48474 43.9996 3.89301 43.9996Z" fill="white"/>
</svg>
