<svg width="30" height="30" viewBox="0 0 30 30" fill="none" xmlns="http://www.w3.org/2000/svg">
<g clip-path="url(#clip0_506_868)">
<path d="M19.6875 0.0292969L30 5.18555V16.6846L28.125 15.7471V7.28027L20.625 11.0303V14.8096L18.75 15.7471V11.0303L11.25 7.28027V10.6055L9.375 9.66797V5.18555L19.6875 0.0292969ZM19.6875 9.4043L22.2803 8.10059L15.498 4.21875L12.4072 5.77148L19.6875 9.4043ZM24.3018 7.10449L26.9678 5.77148L19.6875 2.12402L17.5049 3.22266L24.3018 7.10449ZM16.875 16.6846L15 17.6221V17.6074L9.375 20.4199V27.085L15 24.2578V26.3672L8.4375 29.6484L0 25.415V15.5127L8.4375 11.2939L16.875 15.5127V16.6846ZM7.5 27.085V20.4199L1.875 17.6074V24.2578L7.5 27.085ZM8.4375 18.7939L13.8428 16.0986L8.4375 13.3887L3.03223 16.0986L8.4375 18.7939ZM16.875 18.7793L23.4375 15.498L30 18.7793V26.499L23.4375 29.7803L16.875 26.499V18.7793ZM22.5 27.2168V22.749L18.75 20.874V25.3418L22.5 27.2168ZM28.125 25.3418V20.874L24.375 22.749V27.2168L28.125 25.3418ZM23.4375 21.123L26.9678 19.3506L23.4375 17.5928L19.9072 19.3506L23.4375 21.123Z" fill="white"/>
</g>
<defs>
<clipPath id="clip0_506_868">
<rect width="30" height="30" fill="white"/>
</clipPath>
</defs>
</svg>
