<svg width="24" height="24" viewBox="0 0 24 24" fill="none" xmlns="http://www.w3.org/2000/svg">
<path d="M8.5075 8.50069H4.06879C3.80718 8.50069 3.55629 8.39533 3.37131 8.20777C3.18633 8.02022 3.0824 7.76585 3.0824 7.50061V3.00024C3.0824 2.73501 3.18633 2.48063 3.37131 2.29308C3.55629 2.10553 3.80718 2.00016 4.06879 2.00016C4.33039 2.00016 4.58128 2.10553 4.76626 2.29308C4.95125 2.48063 5.05517 2.73501 5.05517 3.00024V6.50053H8.5075C8.76911 6.50053 9.02 6.60589 9.20498 6.79345C9.38996 6.981 9.49388 7.23537 9.49388 7.50061C9.49388 7.76585 9.38996 8.02022 9.20498 8.20777C9.02 8.39533 8.76911 8.50069 8.5075 8.50069Z" fill="#71CFEC"/>
<path d="M20.714 13.0002C20.4524 13.0002 20.2015 12.8949 20.0165 12.7074C19.8315 12.5198 19.7276 12.2655 19.7276 12.0002C19.7284 10.2398 19.156 8.5283 18.0992 7.13136C17.0424 5.73442 15.5604 4.73015 13.8832 4.27438C12.2059 3.81862 10.4271 3.93684 8.82286 4.61071C7.21862 5.28457 5.87863 6.4764 5.01081 8.00126C4.87975 8.2308 4.66411 8.39816 4.41133 8.46652C4.15855 8.53487 3.88934 8.49863 3.66292 8.36575C3.4365 8.23288 3.27142 8.01426 3.20399 7.758C3.13657 7.50173 3.17232 7.2288 3.30338 6.99926C4.38865 5.0935 6.06396 3.60411 8.0694 2.76215C10.0748 1.92019 12.2983 1.77274 14.3948 2.34265C16.4914 2.91257 18.3438 4.168 19.6647 5.91419C20.9856 7.66037 21.7012 9.79969 21.7004 12.0002C21.7004 12.2655 21.5965 12.5198 21.4115 12.7074C21.2265 12.8949 20.9756 13.0002 20.714 13.0002ZM19.6043 22.0002C19.3427 22.0002 19.0918 21.8949 18.9068 21.7073C18.7219 21.5198 18.6179 21.2655 18.6179 21.0002V17.5002H15.1656C14.904 17.5002 14.6531 17.3949 14.4681 17.2073C14.2831 17.0198 14.1792 16.7655 14.1792 16.5002C14.1792 16.235 14.2831 15.9807 14.4681 15.7931C14.6531 15.6056 14.904 15.5002 15.1656 15.5002H19.6043C19.8659 15.5002 20.1168 15.6056 20.3018 15.7931C20.4868 15.9807 20.5907 16.235 20.5907 16.5002V21.0002C20.5907 21.2655 20.4868 21.5198 20.3018 21.7073C20.1168 21.8949 19.8659 22.0002 19.6043 22.0002Z" fill="#71CFEC"/>
<path d="M11.8366 22.0008C9.22155 21.9976 6.71447 20.943 4.86532 19.0681C3.01618 17.1933 1.97595 14.6514 1.97282 12C1.97282 11.7348 2.07674 11.4804 2.26172 11.2928C2.4467 11.1053 2.69759 10.9999 2.9592 10.9999C3.2208 10.9999 3.47169 11.1053 3.65668 11.2928C3.84166 11.4804 3.94558 11.7348 3.94558 12C3.94483 13.7606 4.51725 15.4722 5.574 16.8693C6.63076 18.2663 8.11277 19.2707 9.79005 19.7265C11.4673 20.1823 13.2461 20.0641 14.8503 19.3902C16.4546 18.7162 17.7946 17.5243 18.6624 15.9993C18.7273 15.8857 18.8136 15.7861 18.9165 15.7062C19.0194 15.6264 19.1367 15.5679 19.2619 15.534C19.387 15.5002 19.5176 15.4917 19.646 15.5089C19.7744 15.5262 19.8982 15.569 20.0103 15.6348C20.1224 15.7006 20.2206 15.7881 20.2994 15.8924C20.3781 15.9967 20.4358 16.1157 20.4692 16.2426C20.5026 16.3695 20.511 16.5018 20.494 16.632C20.4769 16.7622 20.4347 16.8877 20.3698 17.0014C19.5023 18.518 18.258 19.7776 16.7608 20.6548C15.2636 21.532 13.5658 21.9961 11.8366 22.0008Z" fill="#71CFEC"/>
</svg>
