<svg width="30" height="30" viewBox="0 0 30 30" fill="none" xmlns="http://www.w3.org/2000/svg">
<path d="M8.125 25C6.22917 25 4.60958 24.3437 3.26625 23.0312C1.92292 21.7188 1.25083 20.1146 1.25 18.2188C1.25 16.5938 1.73958 15.1458 2.71875 13.875C3.69792 12.6042 4.97917 11.7917 6.5625 11.4375C7.08333 9.52083 8.125 7.96875 9.6875 6.78125C11.25 5.59375 13.0208 5 15 5C17.4375 5 19.5054 5.84917 21.2037 7.5475C22.9021 9.24583 23.7508 11.3133 23.75 13.75C25.1875 13.9167 26.3804 14.5367 27.3288 15.61C28.2771 16.6833 28.7508 17.9383 28.75 19.375C28.75 20.9375 28.2033 22.2658 27.11 23.36C26.0167 24.4542 24.6883 25.0008 23.125 25H8.125Z" fill="white"/>
</svg>
