<svg width="20" height="20" viewBox="0 0 20 20" fill="none" xmlns="http://www.w3.org/2000/svg">
<path d="M6.31287 15L9.86386 11.4L13.4148 15L14.7958 13.6L11.2448 10L14.7958 6.40002L13.4148 5.00001L9.86386 8.60002L6.31287 5.00001L4.93193 6.40002L8.48292 10L4.93193 13.6L6.31287 15ZM9.86386 20C8.49936 20 7.21705 19.7374 6.01695 19.212C4.81685 18.6867 3.77292 17.9744 2.88518 17.075C1.99743 16.175 1.2948 15.1167 0.777272 13.9C0.259748 12.6834 0.00065759 11.3834 0 10C0 8.61669 0.259091 7.31669 0.777272 6.10002C1.29545 4.88335 1.99809 3.82501 2.88518 2.92501C3.77292 2.02501 4.81685 1.31267 6.01695 0.788002C7.21705 0.263334 8.49936 0.000666668 9.86386 0C11.2284 0 12.5107 0.262667 13.7108 0.788002C14.9109 1.31334 15.9548 2.02567 16.8425 2.92501C17.7303 3.82501 18.4332 4.88335 18.9514 6.10002C19.4696 7.31669 19.7284 8.61669 19.7277 10C19.7277 11.3834 19.4686 12.6834 18.9504 13.9C18.4323 15.1167 17.7296 16.175 16.8425 17.075C15.9548 17.975 14.9109 18.6877 13.7108 19.213C12.5107 19.7384 11.2284 20.0007 9.86386 20ZM9.86386 18C12.0668 18 13.9327 17.225 15.4616 15.675C16.9905 14.125 17.7549 12.2334 17.7549 10C17.7549 7.76669 16.9905 5.87501 15.4616 4.32501C13.9327 2.77501 12.0668 2 9.86386 2C7.66093 2 5.79502 2.77501 4.26612 4.32501C2.73722 5.87501 1.97277 7.76669 1.97277 10C1.97277 12.2334 2.73722 14.125 4.26612 15.675C5.79502 17.225 7.66093 18 9.86386 18Z" fill="#FF6C52"/>
</svg>
