<svg width="30" height="30" viewBox="0 0 30 30" fill="none" xmlns="http://www.w3.org/2000/svg">
<path d="M15.0037 26.25C13.4488 26.25 11.9862 25.955 10.6163 25.365C9.24708 24.7742 8.05583 23.9725 7.0425 22.96C6.02917 21.9483 5.22708 20.7583 4.63625 19.39C4.04542 18.0217 3.75 16.5596 3.75 15.0037C3.75 13.4488 4.04542 11.9862 4.63625 10.6163C5.22708 9.24625 6.02875 8.055 7.04125 7.0425C8.05375 6.02917 9.24417 5.22708 10.6125 4.63625C11.9817 4.04542 13.4442 3.75 15 3.75H15.625V13.925C15.84 14.0583 15.9979 14.2133 16.0987 14.39C16.1996 14.5667 16.25 14.7708 16.25 15.0025C16.25 15.3358 16.1254 15.6271 15.8763 15.8763C15.6263 16.1254 15.3342 16.25 15 16.25C14.6658 16.25 14.3737 16.1254 14.1237 15.8763C13.8746 15.6263 13.75 15.3363 13.75 15.0063C13.75 14.7754 13.8004 14.5696 13.9013 14.3888C14.0021 14.2079 14.16 14.0538 14.375 13.9262V10.0588C13.1317 10.2062 12.0917 10.7467 11.255 11.68C10.4183 12.6142 10 13.7208 10 15C10 16.375 10.4896 17.5521 11.4688 18.5312C12.4479 19.5104 13.625 20 15 20C16.375 20 17.5521 19.5104 18.5312 18.5312C19.5104 17.5521 20 16.375 20 15C20 14.25 19.8487 13.5575 19.5463 12.9225C19.2438 12.2875 18.8325 11.73 18.3125 11.25L19.2037 10.3587C19.8371 10.9337 20.3367 11.6192 20.7025 12.415C21.0675 13.2108 21.25 14.0725 21.25 15C21.25 16.7358 20.6429 18.2117 19.4288 19.4275C18.2146 20.6425 16.7404 21.25 15.0063 21.25C13.2712 21.25 11.795 20.6425 10.5775 19.4275C9.35917 18.2117 8.75 16.7358 8.75 15C8.75 13.365 9.29167 11.9592 10.375 10.7825C11.4583 9.605 12.7917 8.9425 14.375 8.795V5.01625C11.7517 5.16792 9.53333 6.20125 7.72 8.11625C5.90667 10.0304 5 12.325 5 15C5 17.7917 5.96875 20.1562 7.90625 22.0938C9.84375 24.0312 12.2083 25 15 25C17.7917 25 20.1562 24.0312 22.0938 22.0938C24.0312 20.1562 25 17.7917 25 15C25 13.5625 24.7188 12.2188 24.1562 10.9687C23.5938 9.71875 22.8229 8.63542 21.8438 7.71875L22.735 6.8275C23.8267 7.86083 24.6854 9.07667 25.3113 10.475C25.9371 11.8725 26.25 13.3783 26.25 14.9925C26.25 16.5508 25.955 18.0146 25.365 19.3837C24.7742 20.7529 23.9725 21.9442 22.96 22.9575C21.9483 23.9708 20.7583 24.7729 19.39 25.3638C18.0217 25.9546 16.5596 26.25 15.0037 26.25Z" fill="white"/>
</svg>
