<svg width="25" height="26" viewBox="0 0 25 26" fill="none" xmlns="http://www.w3.org/2000/svg">
<path d="M12.2456 2.59995C15.6952 2.59995 17.652 5.09984 17.9361 8.11973H18.0218C20.2444 8.11973 22.042 10.0853 22.042 12.5098C22.042 12.6333 22.0371 12.7568 22.0286 12.8777C21.6338 12.355 21.1751 11.8907 20.6644 11.4971C20.2848 10.2842 19.2403 9.41972 18.0231 9.41972H17.9361C17.6325 9.41973 17.3398 9.30003 17.1146 9.08384C16.8895 8.86765 16.748 8.57039 16.7177 8.24973C16.4703 5.62244 14.8282 3.89995 12.2456 3.89995C9.6569 3.89995 8.02212 5.61074 7.77353 8.24843C7.74346 8.56932 7.60211 8.8669 7.37694 9.08335C7.15178 9.29981 6.85886 9.4197 6.5551 9.41972H6.46938C4.93134 9.41972 3.67372 10.7951 3.67372 12.5098C3.67372 14.2258 4.93256 15.5999 6.46816 15.5999H9.73282C9.62449 16.0256 9.55195 16.4606 9.51607 16.8999H6.46816C4.24804 16.8999 2.44917 14.9343 2.44917 12.5098C2.44917 10.1659 4.13048 8.25103 6.24774 8.12623L6.5551 8.11973C6.84164 5.08034 8.79603 2.59995 12.2456 2.59995ZM22.042 17.5499C22.042 19.1014 21.4615 20.5894 20.4281 21.6865C19.3946 22.7835 17.993 23.3999 16.5315 23.3999C15.0701 23.3999 13.6685 22.7835 12.635 21.6865C11.6016 20.5894 11.0211 19.1014 11.0211 17.5499C11.0211 15.9984 11.6016 14.5104 12.635 13.4133C13.6685 12.3163 15.0701 11.6999 16.5315 11.6999C17.993 11.6999 19.3946 12.3163 20.4281 13.4133C21.4615 14.5104 22.042 15.9984 22.042 17.5499ZM18.5472 15.1397L15.307 18.5808L14.5159 17.7397C14.459 17.6793 14.3914 17.6313 14.317 17.5986C14.2427 17.5659 14.1629 17.5491 14.0824 17.5491C14.0019 17.5491 13.9222 17.5659 13.8478 17.5986C13.7735 17.6313 13.7059 17.6793 13.6489 17.7397C13.592 17.8001 13.5469 17.8719 13.5161 17.9508C13.4852 18.0298 13.4694 18.1144 13.4694 18.1999C13.4694 18.2854 13.4852 18.37 13.5161 18.4489C13.5469 18.5279 13.592 18.5997 13.6489 18.6601L14.8735 19.9601C14.9304 20.0206 14.9979 20.0686 15.0723 20.1014C15.1467 20.1342 15.2265 20.151 15.307 20.151C15.3875 20.151 15.4673 20.1342 15.5417 20.1014C15.616 20.0686 15.6836 20.0206 15.7405 19.9601L19.4141 16.0601C19.5291 15.938 19.5937 15.7725 19.5937 15.5999C19.5937 15.4273 19.5291 15.2618 19.4141 15.1397C19.2992 15.0176 19.1432 14.9491 18.9807 14.9491C18.8181 14.9491 18.6621 15.0176 18.5472 15.1397Z" fill="#E6AF4E"/>
</svg>
