<svg width="30" height="30" viewBox="0 0 30 30" fill="none" xmlns="http://www.w3.org/2000/svg">
<path d="M17.5137 1.42432C16.6406 1.44189 16.0137 1.61182 15.5977 1.9165L9.89649 4.96924L6.72657 9.28115C6.0586 10.3124 6.53321 12.3046 8.61915 11.0272L10.9043 8.01553C13.8047 5.51416 19.7227 6.66201 16.916 11.6835C15.5391 14.5897 16.1836 16.0077 17.959 16.6054L18.7676 13.8866C20.168 10.7343 22.7813 10.1659 22.6758 7.62295L28.957 8.07412L28.8984 1.50635L17.5137 1.42432ZM14.3438 7.48232C13.3242 7.46475 12.3223 7.88662 11.5957 8.496L9.3047 11.5077C9.93165 12.0058 10.5645 11.7362 11.1914 11.1327C11.9297 11.5077 12.5039 10.9276 12.9727 9.76748C13.166 8.97646 13.4531 8.41982 14.3438 7.48232ZM9.6797 13.1073C9.65626 13.1073 9.62696 13.1073 9.60352 13.1132C9.41016 13.1542 9.18165 13.3593 9.02931 13.828C8.8711 14.2968 8.83595 14.9647 8.97657 15.6796C9.1172 16.3886 9.41016 16.9921 9.73829 17.3671C10.0547 17.7362 10.3477 17.8417 10.541 17.8007C10.7402 17.7655 10.9629 17.5546 11.1152 17.0917C11.2734 16.6229 11.3145 15.9491 11.1738 15.2401C11.0274 14.5253 10.7344 13.9218 10.4121 13.5526C10.1309 13.2245 9.87306 13.1073 9.6797 13.1073ZM14.5195 19.3651C14.0566 19.371 13.4766 19.5175 12.9082 19.7929C12.2578 20.1151 11.7481 20.5604 11.4727 20.9706C11.1973 21.3749 11.1738 21.6796 11.2617 21.8612C11.3496 22.037 11.6074 22.2069 12.0996 22.2304C12.5918 22.2597 13.2539 22.1249 13.9043 21.8026C14.5547 21.4804 15.0645 21.0409 15.3399 20.6308C15.6152 20.2265 15.6387 19.9159 15.5508 19.7401C15.4629 19.5585 15.2051 19.3944 14.7129 19.371C14.6484 19.3651 14.5899 19.3651 14.5195 19.3651ZM8.80079 24.9667C8.5254 24.9726 8.27345 25.0136 8.05079 25.078C7.55274 25.2245 7.26563 25.4882 7.17188 25.7987C7.07227 26.1151 7.17188 26.4901 7.50587 26.8944C7.84571 27.2929 8.41407 27.6737 9.1172 27.8847C9.81446 28.0956 10.4941 28.0897 10.9981 27.9374C11.502 27.7909 11.7891 27.5272 11.8828 27.2167C11.9766 26.9003 11.8828 26.5253 11.543 26.121C11.209 25.7226 10.6406 25.3417 9.93751 25.1308C9.53907 25.0136 9.15235 24.9608 8.80079 24.9667Z" fill="white"/>
</svg>
