<svg width="30" height="30" viewBox="0 0 30 30" fill="none" xmlns="http://www.w3.org/2000/svg">
<path d="M15 27.5C13.2708 27.5 11.6458 27.1717 10.125 26.515C8.60417 25.8583 7.28125 24.9679 6.15625 23.8438C5.03125 22.7188 4.14083 21.3958 3.485 19.875C2.82917 18.3542 2.50083 16.7292 2.5 15C2.5 13.2708 2.82833 11.6458 3.485 10.125C4.14167 8.60417 5.03208 7.28125 6.15625 6.15625C7.28125 5.03125 8.60417 4.14083 10.125 3.485C11.6458 2.82917 13.2708 2.50083 15 2.5C16.7292 2.5 18.3542 2.82833 19.875 3.485C21.3958 4.14167 22.7188 5.03208 23.8438 6.15625C24.9688 7.28125 25.8596 8.60417 26.5162 10.125C27.1729 11.6458 27.5008 13.2708 27.5 15C27.5 16.7292 27.1717 18.3542 26.515 19.875C25.8583 21.3958 24.9679 22.7188 23.8438 23.8438C22.7188 24.9688 21.3958 25.8596 19.875 26.5162C18.3542 27.1729 16.7292 27.5008 15 27.5ZM15 25C16.125 25 17.2083 24.8179 18.25 24.4538C19.2917 24.0896 20.25 23.5633 21.125 22.875L7.125 8.875C6.4375 9.75 5.91125 10.7083 5.54625 11.75C5.18125 12.7917 4.99917 13.875 5 15C5 17.7917 5.96875 20.1562 7.90625 22.0938C9.84375 24.0312 12.2083 25 15 25ZM22.875 21.125C23.5625 20.25 24.0887 19.2917 24.4538 18.25C24.8188 17.2083 25.0008 16.125 25 15C25 12.2083 24.0312 9.84375 22.0938 7.90625C20.1562 5.96875 17.7917 5 15 5C13.875 5 12.7917 5.18208 11.75 5.54625C10.7083 5.91042 9.75 6.43667 8.875 7.125L22.875 21.125Z" fill="white"/>
</svg>
