<svg width="33" height="33" viewBox="0 0 33 33" fill="none" xmlns="http://www.w3.org/2000/svg">
<path d="M28.875 16.5001C28.8791 18.9569 28.1484 21.3588 26.7768 23.3971C25.6456 25.0841 24.1162 26.4665 22.3238 27.4219C20.5314 28.3774 18.5312 28.8765 16.5 28.8751C14.4688 28.8765 12.4686 28.3774 10.6762 27.4219C8.88378 26.4665 7.35439 25.0841 6.22325 23.3971C5.14625 21.7916 4.46037 19.9562 4.22057 18.0379C3.98078 16.1196 4.19374 14.1718 4.8424 12.3507C5.49106 10.5296 6.55737 8.88571 7.95584 7.55095C9.35432 6.21618 11.0461 5.22763 12.8954 4.66453C14.7448 4.10142 16.7004 3.97944 18.6055 4.30836C20.5105 4.63727 22.312 5.40793 23.8655 6.55856C25.419 7.70919 26.6813 9.20778 27.5512 10.9342C28.4212 12.6606 28.8746 14.5668 28.875 16.5001Z" stroke="#6B6B6B" stroke-width="2"/>
<path d="M17.875 12.375C17.875 12.7397 17.7301 13.0894 17.4723 13.3473C17.2144 13.6051 16.8647 13.75 16.5 13.75V16.5C17.594 16.5 18.6432 16.0654 19.4168 15.2918C20.1904 14.5182 20.625 13.469 20.625 12.375H17.875ZM16.5 13.75C16.1353 13.75 15.7856 13.6051 15.5277 13.3473C15.2699 13.0894 15.125 12.7397 15.125 12.375H12.375C12.375 13.469 12.8096 14.5182 13.5832 15.2918C14.3568 16.0654 15.406 16.5 16.5 16.5V13.75ZM15.125 12.375C15.125 12.0103 15.2699 11.6606 15.5277 11.4027C15.7856 11.1449 16.1353 11 16.5 11V8.25C15.406 8.25 14.3568 8.6846 13.5832 9.45818C12.8096 10.2318 12.375 11.281 12.375 12.375H15.125ZM16.5 11C16.8647 11 17.2144 11.1449 17.4723 11.4027C17.7301 11.6606 17.875 12.0103 17.875 12.375H20.625C20.625 11.281 20.1904 10.2318 19.4168 9.45818C18.6432 8.6846 17.594 8.25 16.5 8.25V11ZM7.10325 24.552L5.78463 24.1601L5.5715 24.8792L6.05963 25.4471L7.10325 24.552ZM25.8968 24.552L26.9418 25.4471L27.4285 24.8792L27.2154 24.1601L25.8968 24.552ZM12.375 22H20.625V19.25H12.375V22ZM12.375 19.25C10.8943 19.25 9.45315 19.7278 8.26578 20.6125C7.07841 21.4971 6.20823 22.7413 5.78463 24.1601L8.4205 24.9439C8.67523 24.0931 9.19758 23.3471 9.90999 22.8167C10.6224 22.2864 11.4869 22 12.375 22V19.25ZM16.5 27.5C14.9125 27.5018 13.3436 27.1591 11.9015 26.4956C10.4593 25.8321 9.17832 24.8636 8.14688 23.6569L6.05963 25.4471C7.34922 26.9548 8.95041 28.165 10.7528 28.9941C12.5552 29.8233 14.516 30.2518 16.5 30.25V27.5ZM20.625 22C22.4909 22 24.0708 23.2403 24.5795 24.9452L27.2154 24.1601C26.7918 22.7415 25.9205 21.4975 24.7334 20.6129C23.5463 19.7282 22.1055 19.2503 20.625 19.25V22ZM24.8531 23.6569C23.8217 24.8636 22.5407 25.8321 21.0985 26.4956C19.6564 27.1591 18.0875 27.5018 16.5 27.5V30.25C18.484 30.2518 20.4448 29.8233 22.2472 28.9941C24.0496 28.165 25.6522 26.9548 26.9418 25.4471L24.8531 23.6569Z" fill="#6B6B6B"/>
</svg>
