<svg width="33" height="33" viewBox="0 0 33 33" fill="none" xmlns="http://www.w3.org/2000/svg">
<path d="M10.1875 3.09375C7.97836 3.09375 6.1875 4.88461 6.1875 7.09375V25.9062C6.1875 28.1154 7.97836 29.9062 10.1875 29.9062H22.8125C25.0216 29.9062 26.8125 28.1154 26.8125 25.9062V10.3375C26.8125 10.0574 26.7012 9.78871 26.5031 9.59063L20.3156 3.40312C20.1175 3.20504 19.8489 3.09375 19.5687 3.09375H10.1875ZM8.25 9.15625C8.25 6.94711 10.0409 5.15625 12.25 5.15625H15.4688C17.1774 5.15625 18.5625 6.54137 18.5625 8.25C18.5625 9.95863 19.9476 11.3438 21.6562 11.3438C23.3649 11.3438 24.75 12.7289 24.75 14.4375V23.8438C24.75 26.0529 22.9591 27.8438 20.75 27.8438H12.25C10.0409 27.8438 8.25 26.0529 8.25 23.8438V9.15625ZM20.625 8.49593C20.625 7.79628 21.4709 7.4459 21.9656 7.94062C22.4604 8.43535 22.11 9.28125 21.4103 9.28125C20.9766 9.28125 20.625 8.92965 20.625 8.49593ZM11.3438 9.28125C10.7742 9.28125 10.3125 9.74296 10.3125 10.3125C10.3125 10.882 10.7742 11.3438 11.3438 11.3438H15.4688C16.0383 11.3438 16.5 10.882 16.5 10.3125C16.5 9.74296 16.0383 9.28125 15.4688 9.28125H11.3438ZM11.3437 13.4062C10.7742 13.4062 10.3125 13.868 10.3125 14.4375C10.3125 15.007 10.7742 15.4688 11.3438 15.4688H21.6562C22.2258 15.4688 22.6875 15.007 22.6875 14.4375C22.6875 13.868 22.2258 13.4062 21.6562 13.4062H11.3437ZM13.9219 16.5C12.9938 16.5 12.2719 17.1187 11.8594 17.8406C11.4469 18.5625 11.3438 19.4906 11.3438 20.5219C11.3438 20.9194 11.4289 21.3169 11.5171 21.7144C11.6 22.088 11.4008 22.4646 11.0477 22.6122C10.6737 22.7685 10.3125 23.1192 10.3125 23.5246V23.8219C10.3125 24.3914 10.7766 24.8618 11.3405 24.7819C11.493 24.7602 11.6432 24.7337 11.7899 24.7022C12.1302 24.6292 12.4383 24.8133 12.6844 25.0594C13.0969 25.4719 13.7156 25.7812 14.4375 25.7812C16.0745 25.7812 17.1025 24.6646 17.8235 23.8414C17.835 23.8283 17.8445 23.8139 17.8525 23.7985C17.8827 23.7405 17.9129 23.6909 17.943 23.6472C18.0093 23.5513 18.158 23.6117 18.2348 23.6993C18.2441 23.7098 18.2563 23.7252 18.2626 23.7377C18.3627 23.9377 18.4657 24.1376 18.6656 24.3375C18.8719 24.5438 19.2844 24.75 19.5938 24.75C20.2125 24.75 20.625 24.3375 20.8313 24.1313C21.0375 23.925 21.2437 23.6156 21.45 23.4094C21.5371 23.3223 21.6196 23.2398 21.6995 23.1638C22.1121 22.7712 22.5844 22.2258 22.5844 21.6562V21.4479C22.5844 20.9934 22.2096 20.6145 21.7707 20.7322C21.073 20.9194 20.5126 21.3243 20.1165 21.7295C20.0411 21.8066 19.888 21.7539 19.8162 21.6734C19.808 21.6642 19.7972 21.6506 19.7916 21.6395C19.6912 21.4388 19.5882 21.2354 19.3875 20.9344C19.1812 20.625 18.8719 20.625 18.5625 20.625C17.7375 20.625 17.4281 21.1406 17.1188 21.45C16.9168 21.652 16.7148 21.8979 16.5415 22.1592C16.3607 22.4317 16.1904 22.7139 15.9672 22.953C15.508 23.4449 15.1097 23.7188 14.4375 23.7188C14.3344 23.7188 14.3344 23.6156 14.2312 23.6156C14.3854 23.6156 14.5033 23.46 14.6198 23.359C15.6696 22.4492 16.5 21.2576 16.5 19.6969C16.5 18.8719 16.2937 18.15 15.8812 17.5312C15.4688 16.9125 14.7469 16.5 13.9219 16.5ZM13.7156 18.8719C13.7966 18.7099 14.0042 18.4875 14.136 18.6119C14.1679 18.642 14.1922 18.6906 14.2312 18.7688C14.3344 18.975 14.4375 19.2844 14.4375 19.8C14.4375 20.1359 14.3463 20.4718 14.1805 20.7911C14.0183 21.1036 13.4062 20.9771 13.4062 20.625C13.4062 19.8 13.5094 19.1812 13.7156 18.8719Z" fill="#6B6B6B"/>
</svg>
