<svg width="35" height="35" viewBox="0 0 35 35" fill="none" xmlns="http://www.w3.org/2000/svg">
<path d="M7.29163 7.29167H26.25C27.4103 7.29167 28.5231 7.75261 29.3436 8.57308C30.164 9.39355 30.625 10.5063 30.625 11.6667V24.7917C30.625 25.952 30.164 27.0648 29.3436 27.8853C28.5231 28.7057 27.4103 29.1667 26.25 29.1667H7.29163C6.1313 29.1667 5.01851 28.7057 4.19803 27.8853C3.37756 27.0648 2.91663 25.952 2.91663 24.7917V11.6667C2.91663 10.5063 3.37756 9.39355 4.19803 8.57308C5.01851 7.75261 6.1313 7.29167 7.29163 7.29167ZM7.29163 8.75001C6.56246 8.75001 5.92079 8.99792 5.42496 9.43542L16.7708 16.7708L28.1166 9.43542C27.6208 8.99792 26.9791 8.75001 26.25 8.75001H7.29163ZM16.7708 18.5354L4.56454 10.6167C4.44788 10.9375 4.37496 11.3021 4.37496 11.6667V24.7917C4.37496 25.5652 4.68225 26.3071 5.22923 26.8541C5.77621 27.401 6.51808 27.7083 7.29163 27.7083H26.25C27.0235 27.7083 27.7654 27.401 28.3124 26.8541C28.8593 26.3071 29.1666 25.5652 29.1666 24.7917V11.6667C29.1666 11.3021 29.0937 10.9375 28.977 10.6167L16.7708 18.5354Z" fill="#6B6B6B"/>
</svg>
