<svg width="23" height="24" viewBox="0 0 23 24" fill="none" xmlns="http://www.w3.org/2000/svg">
<path d="M20.7377 16.9847C20.7706 17.0195 20.7966 17.0609 20.8144 17.1064C20.8322 17.1519 20.8413 17.2007 20.8413 17.25C20.8413 17.2993 20.8322 17.3481 20.8144 17.3936C20.7966 17.4391 20.7706 17.4805 20.7377 17.5153L18.6183 19.7653C18.552 19.8356 18.4621 19.8752 18.3684 19.8752C18.2747 19.8752 18.1848 19.8356 18.1185 19.7653C18.0522 19.6949 18.015 19.5995 18.015 19.5C18.015 19.4005 18.0522 19.305 18.1185 19.2347L19.6347 17.625H17.7449C16.7892 17.6239 15.8474 17.3811 14.9975 16.9168C14.1477 16.4525 13.4142 15.78 12.8579 14.955L9.17451 9.48094C8.68372 8.75282 8.03658 8.15933 7.28669 7.74963C6.53679 7.33993 5.70574 7.12581 4.86237 7.12501H2.82595C2.73227 7.12501 2.64242 7.0855 2.57618 7.01518C2.50993 6.94485 2.47272 6.84947 2.47272 6.75001C2.47272 6.65056 2.50993 6.55517 2.57618 6.48485C2.64242 6.41452 2.73227 6.37501 2.82595 6.37501H4.86237C5.81814 6.37612 6.75992 6.61886 7.60976 7.08317C8.4596 7.54747 9.19305 8.21997 9.7494 9.045L13.4328 14.5191C13.9236 15.2472 14.5707 15.8407 15.3206 16.2504C16.0705 16.6601 16.9016 16.8742 17.7449 16.875H19.6347L18.1185 15.2653C18.0522 15.1949 18.015 15.0995 18.015 15C18.015 14.9005 18.0522 14.805 18.1185 14.7347C18.1848 14.6643 18.2747 14.6248 18.3684 14.6248C18.4621 14.6248 18.552 14.6643 18.6183 14.7347L20.7377 16.9847ZM12.8349 9.72469C12.8727 9.75331 12.9154 9.77377 12.9606 9.78488C13.0058 9.79599 13.0526 9.79754 13.0983 9.78944C13.1441 9.78135 13.1879 9.76376 13.2272 9.73769C13.2666 9.71162 13.3007 9.67758 13.3277 9.6375L13.4328 9.48094C13.9236 8.75282 14.5707 8.15933 15.3206 7.74963C16.0705 7.33993 16.9016 7.12581 17.7449 7.12501H19.6347L18.1185 8.73469C18.0522 8.80506 18.015 8.90049 18.015 9C18.015 9.09952 18.0522 9.19495 18.1185 9.26532C18.1848 9.33568 18.2747 9.37521 18.3684 9.37521C18.4621 9.37521 18.552 9.33568 18.6183 9.26532L20.7377 7.01532C20.7706 6.9805 20.7966 6.93914 20.8144 6.89361C20.8322 6.84809 20.8413 6.79929 20.8413 6.75001C20.8413 6.70073 20.8322 6.65193 20.8144 6.60641C20.7966 6.56089 20.7706 6.51953 20.7377 6.4847L18.6183 4.23471C18.552 4.16434 18.4621 4.12481 18.3684 4.12481C18.2747 4.12481 18.1848 4.16434 18.1185 4.23471C18.0522 4.30507 18.015 4.40051 18.015 4.50002C18.015 4.59953 18.0522 4.69497 18.1185 4.76533L19.6347 6.37501H17.7449C16.7892 6.37612 15.8474 6.61886 14.9975 7.08317C14.1477 7.54747 13.4142 8.21997 12.8579 9.045L12.7528 9.20157C12.7258 9.24164 12.7066 9.28696 12.6961 9.33494C12.6856 9.38291 12.6842 9.43261 12.6918 9.48119C12.6994 9.52976 12.716 9.57627 12.7406 9.61805C12.7651 9.65983 12.7972 9.69607 12.8349 9.72469ZM9.77236 14.2753C9.73462 14.2467 9.69193 14.2262 9.64673 14.2151C9.60154 14.204 9.55473 14.2025 9.50897 14.2105C9.46321 14.2186 9.41941 14.2362 9.38005 14.2623C9.34069 14.2884 9.30656 14.3224 9.2796 14.3625L9.17451 14.5191C8.68372 15.2472 8.03658 15.8407 7.28669 16.2504C6.53679 16.6601 5.70574 16.8742 4.86237 16.875H2.82595C2.73227 16.875 2.64242 16.9145 2.57618 16.9848C2.50993 17.0551 2.47272 17.1505 2.47272 17.25C2.47272 17.3494 2.50993 17.4448 2.57618 17.5151C2.64242 17.5855 2.73227 17.625 2.82595 17.625H4.86237C5.81814 17.6239 6.75992 17.3811 7.60976 16.9168C8.4596 16.4525 9.19305 15.78 9.7494 14.955L9.85449 14.7984C9.88146 14.7584 9.90072 14.713 9.91119 14.6651C9.92165 14.6171 9.92311 14.5674 9.91549 14.5188C9.90786 14.4702 9.8913 14.4237 9.86674 14.3819C9.84218 14.3402 9.81011 14.3039 9.77236 14.2753Z" fill="#5261DC"/>
</svg>
