<svg width="30" height="30" viewBox="0 0 30 30" fill="none" xmlns="http://www.w3.org/2000/svg">
<path d="M15 14.8178C16.867 14.8178 18.3889 13.1544 18.3889 11.1305C18.3889 9.12957 16.875 7.54492 15 7.54492C13.1411 7.54492 11.6111 9.15314 11.6111 11.146C11.6186 13.1624 13.1405 14.8178 15 14.8178ZM5.9625 14.9897C7.57821 14.9897 8.90411 13.538 8.90411 11.7572C8.90411 10.0162 7.59429 8.61153 5.9625 8.61153C4.34625 8.61153 3.01232 10.0392 3.02036 11.7728C3.02839 13.546 4.34625 14.9897 5.9625 14.9897ZM24.0455 14.9897C25.6537 14.9897 26.9796 13.546 26.9796 11.7728C26.9877 10.0392 25.6537 8.61153 24.0455 8.61153C22.4062 8.61153 21.0959 10.0156 21.0959 11.7572C21.0959 13.538 22.4218 14.9897 24.0455 14.9897ZM15 13.6328C13.8546 13.6328 12.8737 12.5346 12.8737 11.146C12.8737 9.78099 13.8391 8.72992 15.0005 8.72992C16.1689 8.72992 17.1262 9.76546 17.1262 11.1299C17.1262 12.519 16.1609 13.6328 15 13.6328ZM5.9625 13.8214C5.00518 13.8214 4.18929 12.9031 4.18929 11.7733C4.18929 10.6676 4.99714 9.78046 5.9625 9.78046C6.95089 9.78046 7.74321 10.6515 7.74321 11.7578C7.74321 12.9031 6.92732 13.8214 5.9625 13.8214ZM24.0455 13.8214C23.0727 13.8214 22.2568 12.9031 22.2568 11.7578C22.2568 10.6515 23.0491 9.78099 24.0455 9.78099C25.0104 9.78099 25.8107 10.6676 25.8107 11.7739C25.8107 12.9031 25.0023 13.8214 24.0455 13.8214ZM1.60018 22.1839H7.75875C7.38214 21.9722 7.09179 21.5014 7.14696 21.023H1.40411C1.24714 21.023 1.16893 20.9603 1.16893 20.8113C1.16893 18.8656 3.38893 17.0453 5.95446 17.0453C6.94286 17.0453 7.82946 17.281 8.59018 17.7278C8.84258 17.408 9.14143 17.1277 9.47679 16.8964C8.46482 16.2294 7.24875 15.8844 5.95446 15.8844C2.66732 15.8844 0 18.2694 0 20.8821C0 21.7526 0.533571 22.1839 1.60018 22.1839ZM28.4073 22.1839C29.4664 22.1839 30 21.7526 30 20.8821C30 18.2694 27.3321 15.8844 24.0455 15.8844C22.7512 15.8844 21.5427 16.2294 20.5232 16.8969C20.8762 17.1396 21.1661 17.4144 21.4179 17.7278C22.1705 17.281 23.0646 17.0453 24.0455 17.0453C26.6111 17.0453 28.8311 18.8656 28.8311 20.8113C28.8311 20.9603 28.7604 21.023 28.6034 21.023H22.8605C22.9077 21.5014 22.6254 21.9722 22.2487 22.1839H28.4073ZM10.073 22.1839H19.927C21.2287 22.1839 21.8491 21.7917 21.8491 20.9287C21.8491 18.8731 19.252 15.8999 15 15.8999C10.74 15.8999 8.14286 18.8731 8.14286 20.9287C8.14286 21.7917 8.76321 22.1839 10.073 22.1839ZM9.69643 20.9999C9.49286 20.9999 9.40661 20.9447 9.40661 20.7803C9.40661 19.493 11.3995 17.0849 15 17.0849C18.593 17.0849 20.5859 19.493 20.5859 20.7797C20.5859 20.9447 20.5071 20.9994 20.3036 20.9994L9.69643 20.9999Z" fill="white"/>
</svg>
