<svg width="35" height="35" viewBox="0 0 35 35" fill="none" xmlns="http://www.w3.org/2000/svg">
<path d="M10.2083 14.5833C9.43474 14.5833 8.69288 14.8906 8.1459 15.4376C7.59892 15.9846 7.29163 16.7264 7.29163 17.5C7.29163 18.2735 7.59892 19.0154 8.1459 19.5624C8.69288 20.1094 9.43474 20.4166 10.2083 20.4166C10.9818 20.4166 11.7237 20.1094 12.2707 19.5624C12.8177 19.0154 13.125 18.2735 13.125 17.5C13.125 16.7264 12.8177 15.9846 12.2707 15.4376C11.7237 14.8906 10.9818 14.5833 10.2083 14.5833Z" fill="#6B6B6B"/>
<path fill-rule="evenodd" clip-rule="evenodd" d="M10.2083 9.11456C8.7275 9.11463 7.27314 9.50682 5.99307 10.2513C4.71301 10.9957 3.65291 12.0658 2.92056 13.3528C2.18821 14.6399 1.80973 16.0979 1.82361 17.5786C1.83749 19.0593 2.24323 20.51 2.99958 21.783C3.75593 23.0561 4.83591 24.1062 6.1297 24.8265C7.4235 25.5468 8.88496 25.9116 10.3655 25.8839C11.846 25.8562 13.2928 25.437 14.5588 24.6688C15.8247 23.9006 16.8647 22.8109 17.5729 21.5104H22.2395V24.7916C22.2395 25.3954 22.7295 25.8854 23.3333 25.8854H28.4375C28.7275 25.8854 29.0057 25.7702 29.2109 25.565C29.416 25.3599 29.5312 25.0817 29.5312 24.7916V21.5104H32.0833C32.3734 21.5104 32.6516 21.3952 32.8567 21.19C33.0618 20.9849 33.177 20.7067 33.177 20.4166V16.0416C33.177 15.3648 32.9082 14.7157 32.4296 14.2371C31.951 13.7584 31.3018 13.4896 30.625 13.4896H17.5729C16.852 12.1656 15.7876 11.0604 14.4915 10.2905C13.1955 9.52058 11.7158 9.11434 10.2083 9.11456ZM4.01038 17.5C4.00899 16.075 4.49867 14.693 5.39697 13.5868C6.29527 12.4806 7.54732 11.7178 8.94227 11.4267C10.3372 11.1356 11.7899 11.3341 13.0556 11.9887C14.3213 12.6434 15.3228 13.7142 15.8914 15.0208C15.9765 15.2158 16.1166 15.3817 16.2946 15.4983C16.4725 15.6148 16.6806 15.677 16.8933 15.6771H30.625C30.7217 15.6771 30.8144 15.7155 30.8828 15.7838C30.9511 15.8522 30.9895 15.945 30.9895 16.0416V19.3229H28.4375C28.1474 19.3229 27.8692 19.4381 27.6641 19.6432C27.4589 19.8484 27.3437 20.1266 27.3437 20.4166V23.6979H24.427V20.4166C24.427 20.1266 24.3118 19.8484 24.1067 19.6432C23.9016 19.4381 23.6234 19.3229 23.3333 19.3229H16.8933C16.6806 19.323 16.4725 19.3851 16.2946 19.5017C16.1166 19.6183 15.9765 19.7842 15.8914 19.9791C15.3217 21.2843 14.32 22.3536 13.0546 23.0071C11.7893 23.6607 10.3375 23.8586 8.94343 23.5677C7.54933 23.2768 6.29789 22.5148 5.39951 21.4098C4.50113 20.3047 4.0106 18.9241 4.01038 17.5Z" fill="#6B6B6B"/>
</svg>
