<svg width="33" height="33" viewBox="0 0 33 33" fill="none" xmlns="http://www.w3.org/2000/svg">
<path d="M11 16.5H22V19.25H11V16.5ZM13.75 27.5H8.25V5.5H17.875V12.375H24.75V16.6375L27.5 13.8875V11L19.25 2.75H8.25C7.52065 2.75 6.82118 3.03973 6.30546 3.55546C5.78973 4.07118 5.5 4.77065 5.5 5.5V27.5C5.5 28.2293 5.78973 28.9288 6.30546 29.4445C6.82118 29.9603 7.52065 30.25 8.25 30.25H13.75V27.5ZM11 24.75H16.6375L17.875 23.5125V22H11V24.75ZM27.775 17.875C27.9125 17.875 28.1875 18.0125 28.325 18.15L30.1125 19.9375C30.3875 20.2125 30.3875 20.7625 30.1125 21.0375L28.7375 22.4125L25.85 19.525L27.225 18.15C27.3625 18.0125 27.5 17.875 27.775 17.875ZM27.775 23.2375L19.3875 31.625H16.5V28.7375L24.8875 20.35L27.775 23.2375Z" fill="#6B6B6B"/>
</svg>
