<svg width="60" height="67" viewBox="0 0 60 67" fill="none" xmlns="http://www.w3.org/2000/svg">
<path d="M49.3879 8.23484C49.1212 8.23484 48.8545 8.16816 48.6211 8.0348C42.2199 4.7342 36.6856 3.33394 30.051 3.33394C23.4498 3.33394 17.182 4.9009 11.4809 8.0348C10.6808 8.46822 9.68061 8.16816 9.21386 7.36802C9.00593 6.9781 8.9593 6.52216 9.08399 6.09822C9.20867 5.67428 9.49473 5.31619 9.88065 5.10093C16.0818 1.73365 22.883 0 30.051 0C37.1523 0 43.3535 1.56695 50.1547 5.06759C50.9882 5.50101 51.2882 6.50119 50.8548 7.30134C50.723 7.57926 50.5154 7.81432 50.2559 7.97947C49.9964 8.14461 49.6955 8.23313 49.3879 8.23484ZM1.67915 25.738C1.37183 25.7409 1.06972 25.6586 0.80634 25.5002C0.542957 25.3418 0.32859 25.1136 0.187019 24.8408C0.0454486 24.568 -0.0177934 24.2614 0.00430809 23.9548C0.0264096 23.6483 0.132991 23.3539 0.31223 23.1042C3.61283 18.4367 7.8136 14.7694 12.8145 12.2022C23.2831 6.80124 36.6856 6.76791 47.1875 12.1689C52.1884 14.736 56.3892 18.37 59.6898 23.0042C59.8177 23.1834 59.9088 23.3861 59.958 23.6007C60.0071 23.8153 60.0133 24.0375 59.9761 24.2545C59.9389 24.4714 59.8591 24.6789 59.7413 24.8649C59.6235 25.0508 59.47 25.2116 59.2897 25.338C58.5229 25.8714 57.4894 25.7047 56.9559 24.9379C54.0363 20.8051 50.1582 17.4417 45.6539 15.1361C36.0854 10.2352 23.8499 10.2352 14.3148 15.1694C9.78063 17.5032 5.97993 20.8371 2.97939 25.0379C2.71267 25.5047 2.21258 25.738 1.67915 25.738ZM22.5163 65.9787C22.2977 65.9814 22.0809 65.9383 21.8799 65.8522C21.679 65.766 21.4983 65.6388 21.3494 65.4786C18.4489 62.5781 16.8819 60.7111 14.6482 56.677C12.3478 52.5763 11.1475 47.5754 11.1475 42.2077C11.1475 32.3059 19.6158 24.2378 30.0177 24.2378C40.4196 24.2378 48.8878 32.3059 48.8878 42.2077C48.8878 43.1412 48.1543 43.8747 47.2208 43.8747C46.2873 43.8747 45.5538 43.1412 45.5538 42.2077C45.5538 34.1396 38.5859 27.5717 30.0177 27.5717C21.4494 27.5717 14.4815 34.1396 14.4815 42.2077C14.4815 47.0086 15.5484 51.4428 17.5821 55.0434C19.7158 58.8774 21.1827 60.5111 23.7499 63.1116C24.3833 63.7783 24.3833 64.8119 23.7499 65.4786C23.3831 65.812 22.9497 65.9787 22.5163 65.9787ZM46.4207 59.811C42.4533 59.811 38.9526 58.8108 36.0854 56.8437C31.1179 53.4765 28.1507 48.0088 28.1507 42.2077C28.1507 41.2742 28.8841 40.5408 29.8176 40.5408C30.7511 40.5408 31.4846 41.2742 31.4846 42.2077C31.4846 46.9086 33.885 51.3427 37.9525 54.0766C40.3196 55.6769 43.0867 56.4437 46.4207 56.4437C47.2208 56.4437 48.5544 56.3436 49.888 56.1103C50.7881 55.9436 51.655 56.5437 51.8217 57.4772C51.9884 58.3774 51.3882 59.2442 50.4547 59.4109C48.5544 59.7776 46.8874 59.811 46.4207 59.811ZM39.7194 66.6789C39.5861 66.6789 39.4194 66.6455 39.286 66.6122C33.9851 65.1453 30.5178 63.1782 26.8838 59.6109C24.5809 57.3371 22.7549 54.6267 21.5127 51.6384C20.2704 48.6501 19.6368 45.4439 19.6491 42.2077C19.6491 36.8067 24.2499 32.4059 29.9177 32.4059C35.5854 32.4059 40.1862 36.8067 40.1862 42.2077C40.1862 45.775 43.2868 48.6756 47.1208 48.6756C50.9548 48.6756 54.0554 45.775 54.0554 42.2077C54.0554 29.6388 43.2201 19.4369 29.8843 19.4369C20.4159 19.4369 11.7477 24.7045 7.84694 32.8727C6.5467 35.5732 5.87992 38.7404 5.87992 42.2077C5.87992 44.8082 6.11329 48.909 8.11366 54.2433C8.44705 55.1101 8.01364 56.0769 7.14681 56.377C6.27999 56.7104 5.31315 56.2436 5.01309 55.4101C3.40659 51.1937 2.58186 46.7198 2.57931 42.2077C2.57931 38.207 3.34612 34.573 4.84639 31.4058C9.28054 22.104 19.1157 16.0696 29.8843 16.0696C45.0538 16.0696 57.3893 27.7717 57.3893 42.1744C57.3893 47.5754 52.7885 51.9762 47.1208 51.9762C41.4531 51.9762 36.8523 47.5754 36.8523 42.1744C36.8523 38.6071 33.7517 35.7065 29.9177 35.7065C26.0836 35.7065 22.9831 38.6071 22.9831 42.1744C22.9831 47.8754 25.1835 53.2097 29.2175 57.2105C32.3848 60.3444 35.4187 62.078 40.1195 63.3783C41.0197 63.6116 41.5198 64.5452 41.2864 65.412C41.1197 66.1788 40.4196 66.6789 39.7194 66.6789Z" fill="#6B6B6B"/>
</svg>
