<svg width="32" height="32" viewBox="0 0 32 32" fill="none" xmlns="http://www.w3.org/2000/svg">
<path d="M3.23211 3.6415C3.23211 3.38292 3.13209 3.13492 2.95405 2.95207C2.776 2.76923 2.53453 2.6665 2.28274 2.6665C2.03095 2.6665 1.78948 2.76923 1.61144 2.95207C1.4334 3.13492 1.33337 3.38292 1.33337 3.6415V27.6915C1.33337 28.2297 1.75869 28.6665 2.28274 28.6665H25.384C25.6358 28.6665 25.8773 28.5638 26.0553 28.3809C26.2334 28.1981 26.3334 27.9501 26.3334 27.6915C26.3334 27.4329 26.2334 27.1849 26.0553 27.0021C25.8773 26.8192 25.6358 26.7165 25.384 26.7165H3.23211V3.6415Z" fill="#6B6B6B"/>
<path d="M25.7652 10.8587C25.9197 10.6492 26.0039 10.3721 25.9999 10.0858C25.9959 9.79943 25.904 9.52623 25.7437 9.32372C25.5834 9.12122 25.3671 9.00522 25.1404 9.00017C24.9137 8.99512 24.6944 9.10141 24.5285 9.29664L17.8552 17.7261L13.5152 12.244C13.3511 12.037 13.1287 11.9208 12.8968 11.9208C12.665 11.9208 12.4426 12.037 12.2785 12.244L5.27849 21.0861C5.19252 21.1873 5.12357 21.3093 5.07575 21.4449C5.02792 21.5805 5.00221 21.7268 5.00014 21.8752C4.99806 22.0236 5.01968 22.1711 5.06368 22.3087C5.10769 22.4463 5.17319 22.5713 5.25628 22.6763C5.33937 22.7812 5.43834 22.864 5.5473 22.9196C5.65625 22.9751 5.77295 23.0024 5.89044 22.9998C6.00792 22.9972 6.12379 22.9647 6.23112 22.9043C6.33845 22.8439 6.43505 22.7568 6.51516 22.6482L12.8968 14.5872L17.2368 20.0693C17.4009 20.2763 17.6233 20.3925 17.8552 20.3925C18.087 20.3925 18.3094 20.2763 18.4735 20.0693L25.7652 10.8587Z" fill="#6B6B6B"/>
</svg>
