<svg width="35" height="35" viewBox="0 0 35 35" fill="none" xmlns="http://www.w3.org/2000/svg">
<path d="M31.8965 1.32071H3.10623C2.1201 1.32071 1.32068 2.12013 1.32068 3.10626V31.8965C1.32068 32.8826 2.1201 33.682 3.10623 33.682H31.8965C32.8826 33.682 33.682 32.8826 33.682 31.8965V3.10626C33.682 2.12013 32.8826 1.32071 31.8965 1.32071Z" fill="#3D5A98"/>
<path d="M23.6469 33.6793V21.1477H27.8524L28.4813 16.2641H23.6469V13.1469C23.6469 11.7332 24.0406 10.768 26.0668 10.768H28.6535V6.39297C27.401 6.26242 26.1422 6.20035 24.8828 6.20703C21.1586 6.20703 18.5938 8.47656 18.5938 12.6629V16.2641H14.3883V21.1477H18.5938V33.6793H23.6469Z" fill="white"/>
</svg>
