<svg width="265" height="172" viewBox="0 0 265 172" fill="none" xmlns="http://www.w3.org/2000/svg">
<path d="M0.256088 146.636L28.7884 144.013C31.7696 143.739 34.7743 144.137 37.5817 145.177L49.7731 149.692C59.2568 153.205 69.8714 149.1 74.5236 140.12L81.1431 127.343C82.3013 125.107 84.0048 123.2 86.0959 121.797V121.797C93.3074 116.961 103.108 119.255 107.423 126.791L111.06 133.144C119.532 147.939 141.436 146.067 147.274 130.048L159.329 96.9711C162.686 87.7614 173.19 83.379 182.097 87.4723V87.4723C191 91.5638 201.5 87.1871 204.861 77.9835L227.331 16.4535C229.988 9.17613 236.603 4.08298 244.318 3.37387L264.744 1.49641" stroke="#EDD8B3" stroke-width="3"/>
<path d="M0.256088 158.55L21.8612 154.814C28.9454 153.589 36.1429 156.254 40.722 161.796L41.8417 163.151C52.1714 175.654 72.3003 171.345 76.6064 155.709L82.9085 132.826L89.8229 88.5903C92.1639 73.6136 113.157 72.1372 117.571 86.6388V86.6388C121.78 100.466 141.516 99.9914 145.056 85.9784L153.509 52.5151C157.481 36.7921 179.062 34.9078 185.699 49.7046V49.7046C191.257 62.0988 208.351 63.3793 215.694 51.9516L226.921 34.4811C229.955 29.7585 234.832 26.5256 240.363 25.5692L264.744 21.3536" stroke="#D7CCF2" stroke-width="3"/>
</svg>
