<svg width="24" height="24" viewBox="0 0 24 24" fill="none" xmlns="http://www.w3.org/2000/svg">
<g clip-path="url(#clip0_814_1217)">
<path d="M11.9997 2C12.9367 2 13.8497 2.108 14.7257 2.311C14.8554 2.33894 14.9782 2.39241 15.087 2.46827C15.1958 2.54414 15.2884 2.6409 15.3595 2.75291C15.4305 2.86492 15.4786 2.98995 15.5009 3.12072C15.5231 3.25149 15.5191 3.38537 15.4892 3.51459C15.4592 3.6438 15.4038 3.76576 15.3262 3.87336C15.2487 3.98096 15.1504 4.07205 15.0373 4.14133C14.9242 4.21061 14.7984 4.25669 14.6673 4.27689C14.5362 4.2971 14.4024 4.29101 14.2737 4.259C13.7806 4.14443 13.2795 4.06754 12.7747 4.029L12.7007 4.027C14.2551 4.14596 15.7515 4.66889 17.0417 5.544L17.6477 4.938C17.7406 4.84509 17.8508 4.77138 17.9721 4.72107C18.0935 4.67076 18.2235 4.64484 18.3549 4.6448C18.4862 4.64475 18.6163 4.67058 18.7376 4.7208C18.859 4.77102 18.9693 4.84466 19.0622 4.9375C19.1551 5.03034 19.2288 5.14058 19.2791 5.26191C19.3294 5.38324 19.3554 5.5133 19.3554 5.64465C19.3555 5.776 19.3296 5.90607 19.2794 6.02743C19.2292 6.1488 19.1556 6.25909 19.0627 6.352L18.5677 6.847C19.9654 8.33874 20.8136 10.2619 20.9727 12.2999C21.1318 14.3379 20.5924 16.3693 19.4433 18.0599C18.2941 19.7505 16.6036 20.9996 14.6501 21.6015C12.6965 22.2034 10.5962 22.1223 8.69482 21.3716C6.79346 20.6209 5.20431 19.2453 4.18888 17.4711C3.17346 15.6969 2.79227 13.6299 3.10804 11.6102C3.42381 9.59058 4.41773 7.73858 5.92623 6.35902C7.43473 4.97946 9.36794 4.15453 11.4077 4.02L11.2717 4.026C10.7511 4.06299 10.2341 4.14089 9.72571 4.259C9.46911 4.3143 9.20106 4.26648 8.9794 4.12588C8.75774 3.98528 8.60026 3.76316 8.54093 3.50747C8.4816 3.25177 8.52518 2.983 8.66228 2.75916C8.79937 2.53531 9.01898 2.37435 9.27371 2.311C10.1497 2.108 11.0637 2 11.9997 2ZM11.9997 6C11.0805 6 10.1702 6.18106 9.32092 6.53284C8.47164 6.88463 7.69997 7.40024 7.04996 8.05025C6.39995 8.70026 5.88433 9.47194 5.53255 10.3212C5.18077 11.1705 4.99971 12.0807 4.99971 13C4.99971 13.9193 5.18077 14.8295 5.53255 15.6788C5.88433 16.5281 6.39995 17.2997 7.04996 17.9497C7.69997 18.5998 8.47164 19.1154 9.32092 19.4672C10.1702 19.8189 11.0805 20 11.9997 20C13.8562 20 15.6367 19.2625 16.9495 17.9497C18.2622 16.637 18.9997 14.8565 18.9997 13C18.9997 11.1435 18.2622 9.36301 16.9495 8.05025C15.6367 6.7375 13.8562 6 11.9997 6ZM11.9997 8C12.2446 8.00003 12.481 8.08996 12.6641 8.25272C12.8471 8.41547 12.9641 8.63975 12.9927 8.883L12.9997 9V13C12.9994 13.2549 12.9018 13.5 12.7269 13.6854C12.5519 13.8707 12.3128 13.9822 12.0583 13.9972C11.8039 14.0121 11.5533 13.9293 11.3579 13.7657C11.1624 13.6021 11.0368 13.3701 11.0067 13.117L10.9997 13V9C10.9997 8.73478 11.1051 8.48043 11.2926 8.29289C11.4801 8.10536 11.7345 8 11.9997 8Z" fill="#232266"/>
</g>
<defs>
<clipPath id="clip0_814_1217">
<rect width="24" height="24" fill="white"/>
</clipPath>
</defs>
</svg>
